<?xml version="1.0" encoding="us-ascii" standalone="no"?><svg xmlns="http://www.w3.org/2000/svg" xmlns:xlink="http://www.w3.org/1999/xlink" contentStyleType="text/css" height="627px" preserveAspectRatio="none" style="width:1190px;height:627px;background:#FFFFFF;" version="1.1" viewBox="0 0 1190 627" width="1190px" zoomAndPan="magnify"><defs/><g><text fill="#000000" font-family="sans-serif" font-size="14" font-weight="bold" lengthAdjust="spacing" textLength="190" x="501.5" y="27.9951">Web Crawling Sequence</text><line style="stroke:#181818;stroke-width:0.5;stroke-dasharray:5.0,5.0;" x1="23" x2="23" y1="118.5938" y2="546.4531"/><line style="stroke:#181818;stroke-width:0.5;stroke-dasharray:5.0,5.0;" x1="106.5" x2="106.5" y1="118.5938" y2="546.4531"/><line style="stroke:#181818;stroke-width:0.5;stroke-dasharray:5.0,5.0;" x1="177.5" x2="177.5" y1="118.5938" y2="546.4531"/><line style="stroke:#181818;stroke-width:0.5;stroke-dasharray:5.0,5.0;" x1="316" x2="316" y1="118.5938" y2="546.4531"/><line style="stroke:#181818;stroke-width:0.5;stroke-dasharray:5.0,5.0;" x1="469" x2="469" y1="118.5938" y2="546.4531"/><line style="stroke:#181818;stroke-width:0.5;stroke-dasharray:5.0,5.0;" x1="545" x2="545" y1="118.5938" y2="546.4531"/><line style="stroke:#181818;stroke-width:0.5;stroke-dasharray:5.0,5.0;" x1="711" x2="711" y1="118.5938" y2="546.4531"/><line style="stroke:#181818;stroke-width:0.5;stroke-dasharray:5.0,5.0;" x1="806" x2="806" y1="118.5938" y2="546.4531"/><line style="stroke:#181818;stroke-width:0.5;stroke-dasharray:5.0,5.0;" x1="959.5" x2="959.5" y1="118.5938" y2="546.4531"/><line style="stroke:#181818;stroke-width:0.5;stroke-dasharray:5.0,5.0;" x1="1152" x2="1152" y1="118.5938" y2="546.4531"/><text fill="#000000" font-family="sans-serif" font-size="14" lengthAdjust="spacing" textLength="31" x="5" y="115.292">User</text><ellipse cx="23.5" cy="50.7969" fill="#E2E2F0" rx="8" ry="8" style="stroke:#181818;stroke-width:0.5;"/><path d="M23.5,58.7969 L23.5,85.7969 M10.5,66.7969 L36.5,66.7969 M23.5,85.7969 L10.5,100.7969 M23.5,85.7969 L36.5,100.7969 " fill="none" style="stroke:#181818;stroke-width:0.5;"/><text fill="#000000" font-family="sans-serif" font-size="14" lengthAdjust="spacing" textLength="31" x="5" y="558.4482">User</text><ellipse cx="23.5" cy="570.25" fill="#E2E2F0" rx="8" ry="8" style="stroke:#181818;stroke-width:0.5;"/><path d="M23.5,578.25 L23.5,605.25 M10.5,586.25 L36.5,586.25 M23.5,605.25 L10.5,620.25 M23.5,605.25 L36.5,620.25 " fill="none" style="stroke:#181818;stroke-width:0.5;"/><rect fill="#E2E2F0" height="30.2969" rx="2.5" ry="2.5" style="stroke:#181818;stroke-width:0.5;" width="38" x="87.5" y="87.2969"/><text fill="#000000" font-family="sans-serif" font-size="14" lengthAdjust="spacing" textLength="24" x="94.5" y="107.292">Api</text><rect fill="#E2E2F0" height="30.2969" rx="2.5" ry="2.5" style="stroke:#181818;stroke-width:0.5;" width="38" x="87.5" y="545.4531"/><text fill="#000000" font-family="sans-serif" font-size="14" lengthAdjust="spacing" textLength="24" x="94.5" y="565.4482">Api</text><rect fill="#E2E2F0" height="30.2969" rx="2.5" ry="2.5" style="stroke:#181818;stroke-width:0.5;" width="85" x="135.5" y="87.2969"/><text fill="#000000" font-family="sans-serif" font-size="14" lengthAdjust="spacing" textLength="71" x="142.5" y="107.292">Scheduler</text><rect fill="#E2E2F0" height="30.2969" rx="2.5" ry="2.5" style="stroke:#181818;stroke-width:0.5;" width="85" x="135.5" y="545.4531"/><text fill="#000000" font-family="sans-serif" font-size="14" lengthAdjust="spacing" textLength="71" x="142.5" y="565.4482">Scheduler</text><rect fill="#E2E2F0" height="30.2969" rx="2.5" ry="2.5" style="stroke:#181818;stroke-width:0.5;" width="88" x="272" y="87.2969"/><text fill="#000000" font-family="sans-serif" font-size="14" lengthAdjust="spacing" textLength="74" x="279" y="107.292">Requester</text><rect fill="#E2E2F0" height="30.2969" rx="2.5" ry="2.5" style="stroke:#181818;stroke-width:0.5;" width="88" x="272" y="545.4531"/><text fill="#000000" font-family="sans-serif" font-size="14" lengthAdjust="spacing" textLength="74" x="279" y="565.4482">Requester</text><rect fill="#E2E2F0" height="30.2969" rx="2.5" ry="2.5" style="stroke:#181818;stroke-width:0.5;" width="72" x="433" y="87.2969"/><text fill="#000000" font-family="sans-serif" font-size="14" lengthAdjust="spacing" textLength="58" x="440" y="107.292">Frontier</text><rect fill="#E2E2F0" height="30.2969" rx="2.5" ry="2.5" style="stroke:#181818;stroke-width:0.5;" width="72" x="433" y="545.4531"/><text fill="#000000" font-family="sans-serif" font-size="14" lengthAdjust="spacing" textLength="58" x="440" y="565.4482">Frontier</text><rect fill="#E2E2F0" height="30.2969" rx="2.5" ry="2.5" style="stroke:#181818;stroke-width:0.5;" width="61" x="515" y="87.2969"/><text fill="#000000" font-family="sans-serif" font-size="14" lengthAdjust="spacing" textLength="47" x="522" y="107.292">Spider</text><rect fill="#E2E2F0" height="30.2969" rx="2.5" ry="2.5" style="stroke:#181818;stroke-width:0.5;" width="61" x="515" y="545.4531"/><text fill="#000000" font-family="sans-serif" font-size="14" lengthAdjust="spacing" textLength="47" x="522" y="565.4482">Spider</text><rect fill="#E2E2F0" height="30.2969" style="stroke:#181818;stroke-width:0.5;" width="47" x="690" y="83.2969"/><rect fill="#E2E2F0" height="30.2969" style="stroke:#181818;stroke-width:0.5;" width="47" x="686" y="87.2969"/><text fill="#000000" font-family="sans-serif" font-size="14" lengthAdjust="spacing" textLength="33" x="693" y="107.292">Web</text><rect fill="#E2E2F0" height="30.2969" style="stroke:#181818;stroke-width:0.5;" width="47" x="690" y="545.4531"/><rect fill="#E2E2F0" height="30.2969" style="stroke:#181818;stroke-width:0.5;" width="47" x="686" y="549.4531"/><text fill="#000000" font-family="sans-serif" font-size="14" lengthAdjust="spacing" textLength="33" x="693" y="569.4482">Web</text><rect fill="#E2E2F0" height="30.2969" rx="2.5" ry="2.5" style="stroke:#181818;stroke-width:0.5;" width="118" x="747" y="87.2969"/><text fill="#000000" font-family="sans-serif" font-size="14" lengthAdjust="spacing" textLength="104" x="754" y="107.292">DataProcessor</text><rect fill="#E2E2F0" height="30.2969" rx="2.5" ry="2.5" style="stroke:#181818;stroke-width:0.5;" width="118" x="747" y="545.4531"/><text fill="#000000" font-family="sans-serif" font-size="14" lengthAdjust="spacing" textLength="104" x="754" y="565.4482">DataProcessor</text><rect fill="#E2E2F0" height="30.2969" rx="2.5" ry="2.5" style="stroke:#181818;stroke-width:0.5;" width="105" x="907.5" y="87.2969"/><text fill="#000000" font-family="sans-serif" font-size="14" lengthAdjust="spacing" textLength="91" x="914.5" y="107.292">DataStorage</text><rect fill="#E2E2F0" height="30.2969" rx="2.5" ry="2.5" style="stroke:#181818;stroke-width:0.5;" width="105" x="907.5" y="545.4531"/><text fill="#000000" font-family="sans-serif" font-size="14" lengthAdjust="spacing" textLength="91" x="914.5" y="565.4482">DataStorage</text><text fill="#000000" font-family="sans-serif" font-size="14" lengthAdjust="spacing" textLength="68" x="1115" y="115.292">Database</text><path d="M1134,66.2969 C1134,56.2969 1152,56.2969 1152,56.2969 C1152,56.2969 1170,56.2969 1170,66.2969 L1170,92.2969 C1170,102.2969 1152,102.2969 1152,102.2969 C1152,102.2969 1134,102.2969 1134,92.2969 L1134,66.2969 " fill="#E2E2F0" style="stroke:#181818;stroke-width:1.5;"/><path d="M1134,66.2969 C1134,76.2969 1152,76.2969 1152,76.2969 C1152,76.2969 1170,76.2969 1170,66.2969 " fill="none" style="stroke:#181818;stroke-width:1.5;"/><text fill="#000000" font-family="sans-serif" font-size="14" lengthAdjust="spacing" textLength="68" x="1115" y="558.4482">Database</text><path d="M1134,571.75 C1134,561.75 1152,561.75 1152,561.75 C1152,561.75 1170,561.75 1170,571.75 L1170,597.75 C1170,607.75 1152,607.75 1152,607.75 C1152,607.75 1134,607.75 1134,597.75 L1134,571.75 " fill="#E2E2F0" style="stroke:#181818;stroke-width:1.5;"/><path d="M1134,571.75 C1134,581.75 1152,581.75 1152,581.75 C1152,581.75 1170,581.75 1170,571.75 " fill="none" style="stroke:#181818;stroke-width:1.5;"/><polygon fill="#181818" points="94.5,145.7266,104.5,149.7266,94.5,153.7266,98.5,149.7266" style="stroke:#181818;stroke-width:1.0;"/><line style="stroke:#181818;stroke-width:1.0;" x1="23.5" x2="100.5" y1="149.7266" y2="149.7266"/><text fill="#000000" font-family="sans-serif" font-size="13" lengthAdjust="spacing" textLength="59" x="30.5" y="144.6606">1.Api Call</text><polygon fill="#181818" points="304,174.8594,314,178.8594,304,182.8594,308,178.8594" style="stroke:#181818;stroke-width:1.0;"/><line style="stroke:#181818;stroke-width:1.0;" x1="106.5" x2="310" y1="178.8594" y2="178.8594"/><text fill="#000000" font-family="sans-serif" font-size="13" lengthAdjust="spacing" textLength="114" x="113.5" y="173.7935">2.Trigger Request</text><polygon fill="#181818" points="304,203.9922,314,207.9922,304,211.9922,308,207.9922" style="stroke:#181818;stroke-width:1.0;"/><line style="stroke:#181818;stroke-width:1.0;" x1="178" x2="310" y1="207.9922" y2="207.9922"/><text fill="#000000" font-family="sans-serif" font-size="13" lengthAdjust="spacing" textLength="114" x="185" y="202.9263">2.Trigger Request</text><polygon fill="#181818" points="457,233.125,467,237.125,457,241.125,461,237.125" style="stroke:#181818;stroke-width:1.0;"/><line style="stroke:#181818;stroke-width:1.0;" x1="316" x2="463" y1="237.125" y2="237.125"/><text fill="#000000" font-family="sans-serif" font-size="13" lengthAdjust="spacing" textLength="129" x="323" y="232.0591">3.Request Seed Urls</text><polygon fill="#181818" points="948,262.2578,958,266.2578,948,270.2578,952,266.2578" style="stroke:#181818;stroke-width:1.0;"/><line style="stroke:#181818;stroke-width:1.0;" x1="469" x2="954" y1="266.2578" y2="266.2578"/><text fill="#000000" font-family="sans-serif" font-size="13" lengthAdjust="spacing" textLength="184" x="476" y="261.1919">4.Get Urls From Datastorage</text><polygon fill="#181818" points="480,291.3906,470,295.3906,480,299.3906,476,295.3906" style="stroke:#181818;stroke-width:1.0;"/><line style="stroke:#181818;stroke-width:1.0;" x1="474" x2="959" y1="295.3906" y2="295.3906"/><text fill="#000000" font-family="sans-serif" font-size="13" lengthAdjust="spacing" textLength="186" x="486" y="290.3247">5. Query Urls From Database</text><polygon fill="#181818" points="327,320.5234,317,324.5234,327,328.5234,323,324.5234" style="stroke:#181818;stroke-width:1.0;"/><line style="stroke:#181818;stroke-width:1.0;" x1="321" x2="468" y1="324.5234" y2="324.5234"/><text fill="#000000" font-family="sans-serif" font-size="13" lengthAdjust="spacing" textLength="36" x="333" y="319.4575">6.Urls</text><polygon fill="#181818" points="533.5,349.6563,543.5,353.6563,533.5,357.6563,537.5,353.6563" style="stroke:#181818;stroke-width:1.0;"/><line style="stroke:#181818;stroke-width:1.0;" x1="316" x2="539.5" y1="353.6563" y2="353.6563"/><text fill="#000000" font-family="sans-serif" font-size="13" lengthAdjust="spacing" textLength="79" x="323" y="348.5903">7.Call Spider</text><polygon fill="#181818" points="699.5,378.7891,709.5,382.7891,699.5,386.7891,703.5,382.7891" style="stroke:#181818;stroke-width:1.0;"/><line style="stroke:#181818;stroke-width:1.0;" x1="545.5" x2="705.5" y1="382.7891" y2="382.7891"/><text fill="#000000" font-family="sans-serif" font-size="13" lengthAdjust="spacing" textLength="142" x="552.5" y="377.7231">8.Fetch data from urls</text><polygon fill="#181818" points="556.5,407.9219,546.5,411.9219,556.5,415.9219,552.5,411.9219" style="stroke:#181818;stroke-width:1.0;"/><line style="stroke:#181818;stroke-width:1.0;" x1="550.5" x2="710.5" y1="411.9219" y2="411.9219"/><text fill="#000000" font-family="sans-serif" font-size="13" lengthAdjust="spacing" textLength="76" x="562.5" y="406.856">9.Web Data</text><polygon fill="#181818" points="327,437.0547,317,441.0547,327,445.0547,323,441.0547" style="stroke:#181818;stroke-width:1.0;"/><line style="stroke:#181818;stroke-width:1.0;" x1="321" x2="544.5" y1="441.0547" y2="441.0547"/><text fill="#000000" font-family="sans-serif" font-size="13" lengthAdjust="spacing" textLength="84" x="333" y="435.9888">10.Web Data</text><polygon fill="#181818" points="794,466.1875,804,470.1875,794,474.1875,798,470.1875" style="stroke:#181818;stroke-width:1.0;"/><line style="stroke:#181818;stroke-width:1.0;" x1="316" x2="800" y1="470.1875" y2="470.1875"/><text fill="#000000" font-family="sans-serif" font-size="13" lengthAdjust="spacing" textLength="121" x="323" y="465.1216">11.Processed Data</text><polygon fill="#181818" points="948,495.3203,958,499.3203,948,503.3203,952,499.3203" style="stroke:#181818;stroke-width:1.0;"/><line style="stroke:#181818;stroke-width:1.0;" x1="806" x2="954" y1="499.3203" y2="499.3203"/><text fill="#000000" font-family="sans-serif" font-size="13" lengthAdjust="spacing" textLength="130" x="813" y="494.2544">12.Call to store data</text><polygon fill="#181818" points="1140,524.4531,1150,528.4531,1140,532.4531,1144,528.4531" style="stroke:#181818;stroke-width:1.0;"/><line style="stroke:#181818;stroke-width:1.0;" x1="960" x2="1146" y1="528.4531" y2="528.4531"/><text fill="#000000" font-family="sans-serif" font-size="13" lengthAdjust="spacing" textLength="168" x="967" y="523.3872">13.Store data to database</text><!--SRC=[RPBDJiGW4CVlF0Kl8B6xVd8msQnPussrRZopTEoIO5k1nlZsCfIoKEsbpCnlllxWbDD0t-58jqPyQzMrj8Ql4Je9H4ZN6pfz1mlpKTXWaK4OfwGQHEVePb3et-oV2tSjJz2CsgVwO38Av1MxMJSXoIYGdUaxfoPYFfTj1jN47k54PAyrIAVwpeRTHFYHVPRZlqVXnDxq4goTzlHOuVileVQQY1OoF7f8uyz7OM4cvtF4q2Gaw7ZnW4fnMZ7KRIkq9jv6TnA0qnLxCwfjFHwTvAncJbB-bpm7FPdausiM0_wEeQ47eor9KK_c-_4hzWGkC5ZXCmHjN3K7YmxNZBwCO7uMUM7tl5Cs_GqBSnGZnmlbjmp5cMyrUdqSxvJViHquUQAeE_t0LYCM8XZCQjmpTE0KMO6iVtMP05fEKRuFNbKiMbwxKAy4bW9MgsbwrrFK3SAWI-dIG-7LcjK9mwJvFVq2]--></g></svg>